{"title":"Creed.2015.DVDScr.XVID.AC3.HQ.Hive-CM8","uid":13048806,"size":1874704752,"categoryP":"video","categoryS":"movies","magnet":"?xt=urn:btih:df6ff3b34ea98a73b3a40ac463324322f591b110&amp;dn=Creed.2015.DVDScr.XVID.AC3.HQ.Hive-CM8&amp;tr=udp%3A%2F%2Ftracker.leechers-paradise.org%3A6969&amp;tr=udp%3A%2F%2Fzer0day.ch%3A1337&amp;tr=udp%3A%2F%2Fopen.demonii.com%3A1337&amp;tr=udp%3A%2F%2Ftracker.coppersurfer.tk%3A6969&amp;tr=udp%3A%2F%2Fexodus.desync.com%3A6969","seeders":0,"leechers":0,"uploader":"TvTeam","files":4,"time":1450598783,"description":"------------------------------------------------------------------------\r\n\r  https://www.torrenting.com\r\n\r\nSign up is OPEN - for time being. Come and have fun.\r\n\r\n------------------------------------------------------------------------[center][img]http://img633.imageshack.us/img633/5458/QZ6nHg.jpg[/img]\r\n\r\n \r\n[color=blue][size=4][b]Creed.2015.DVDScr.XVID.AC3.HQ.Hive-CM8[/b][/size][/color]\r\n\r\nThx Hive\r\n\r\nCM8 Doing It Right The First Time \r\n\r\nSource: DVD-Screener Big Thanks M8\r\n\r\n\r\nNotes:\r\n\r\nDVDScreener 2 of 40\r\nwill do them all one after each other, 2nd hot title\r\n\r\nEncode:\r\n\r\nquality was perfect on this.\r\nAll digital watermarks are removed,had to crop 10 lines to get it done safely.\r\nFixed brightness,contrast and rgb, and added sharpness.\r\n\r\ngot very nice\r\nenjoy\r\n\r\nVideo: 720x288 @bitrate 1600 2pass\r\nAudio: English AC3 2.0 Stereo\r\nSample: yes included\r\n\r\n\r\n \nhttp://www.imdb.com/title/tt3076658/\r\n\r\n\r\n\r\nGeneral\r\nComplete name                  : Creed.2015.DVDScr.XVID.AC3.HQ.Hive-CM8.avi\r\nFormat                         : AVI\r\nFormat/Info                    : Audio Video Interleave\r\nFile size                      : 1.73 GiB\r\nDuration                       : 2h 13mn\r\nOverall bit rate               : 1 865 Kbps\r\nWriting application            : Nandub v1.0rc2\r\nWriting library                : Nandub build 1853/release\r\n\r\nVideo\r\nID                             : 0\r\nFormat                         : MPEG-4 Visual\r\nFormat profile                 : Advanced   \r\nFormat settings, BVOP          : 2\r\nFormat settings, QPel          : Yes\r\nFormat settings, GMC           : No warppoints\r\nFormat settings, Matrix        : Default (H.263)\r\nMuxing mode                    : Packed bitstream\r\nCodec ID                       : XVID\r\nCodec ID/Hint                  : XviD\r\nDuration                       : 2h 13mn\r\nBit rate                       : 1 597 Kbps\r\nWidth                          : 720 pixels\r\nHeight                         : 288 pixels\r\nDisplay aspect ratio           : 2.500\r\nFrame rate                     : 29.970 fps\r\nColor space                    : YUV\r\nChroma subsampling             : 4:2:0\r\nBit depth                      : 8 bits\r\nScan type                      : Progressive\r\nCompression mode               : Lossy\r\nBits/(Pixel*Frame)             : 0.257\r\nStream size                    : 1.49 GiB (86%)\r\nWriting library                : XviD 1.2.1 (UTC 2008-12-04)\r\n\r\nAudio\r\nID                             : 1\r\nFormat                         : AC-3\r\nFormat/Info                    : Audio Coding 3\r\nMode extension                 : CM (complete main)\r\nFormat settings, Endianness    : Big\r\nCodec ID                       : 2000\r\nDuration                       : 2h 13mn\r\nBit rate mode                  : Constant\r\nBit rate                       : 256 Kbps\r\nChannel(s)                     : 2 channels\r\nChannel positions              : Front: L R\r\nSampling rate                  : 48.0 KHz\r\nBit depth                      : 16 bits\r\nCompression mode               : Lossy\r\nStream size                    : 244 MiB (14%)\r\nAlignment                      : Split accross interleaves\r\nInterleave, duration           : 33 ms (1.00 video frame)\r\nInterleave, preload duration   : 500 ms\r\n\r\n\r\n\r\n\r\nScreens \r\n\r\n[img]http://img911.imageshack.us/img911/6235/Zb8osn.png[/img]\r\n[img]http://img911.imageshack.us/img911/2451/DcO5uW.png[/img]\r\n[img]http://img633.imageshack.us/img633/2476/AVwo46.png[/img]\r\n[img]http://img633.imageshack.us/img633/7302/MkuaqO.png[/img]\r\n[img]http://img911.imageshack.us/img911/6821/pPsmkZ.png[/img]\r\n[img]http://img907.imageshack.us/img907/4677/D9eSds.png[/img]\r\n\r\nThe former World Heavyweight Champion Rocky Balboa serves as a trainer and mentor to Adonis Johnson, \r\nthe son of his late friend and former rival Apollo Creed.\r\n\r\nCast\r\n\r\nMichael B. Jordan     ...     Adonis Johnson\r\nSylvester Stallone    ...     Rocky Balboa\r\nTessa Thompson           ...     Bianca\r\nPhylicia Rashad       ...     Mary Anne Creed \r\n\r\n\r\nSugarB,iNCOMiNG,Izzy,MenaceIISociety,jiinx,SiMPLE,CherryBomb,bigguy79\r\nranbailey,ViSiON,UnKnOwN,YanKeeS,COPYxRIGHT,THC,VAiN,ACAB,DRs\r\nLKRG,Kingstoner,SiMPLE,TiTAN,cadance,PLAYNOW\r\nUnevano,BigVik,Rapeseed,SAFC,goldadvance,KaN1vE,Pinnz,Wayne,HiGH\r\nSeeN,jtr,Limey,ICONiK,TED,rkofan,mrtoke09\r\nMr Hive\r\n\r\nWONDER WHERE ALL THE OLD DDD FOLKS ARE DONT BE SCARED MESSAGE ME \r\n\r\nsupport the producer and watch it in cinema as intended on the big screen \r\n\r\n\r\n\r\nLOOKING FOR ANYTHING YOU WANT TO LOOK AND SOUND BETTER\r\n\r\nCOME FIND US WE DONT BITE \r\n  [/center]","torrent":{"xt":"urn:btih:df6ff3b34ea98a73b3a40ac463324322f591b110","amp;dn":"Creed.2015.DVDScr.XVID.AC3.HQ.Hive-CM8","amp;tr":["udp%3A%2F%2Ftracker.leechers-paradise.org%3A6969","udp%3A%2F%2Fzer0day.ch%3A1337","udp%3A%2F%2Fopen.demonii.com%3A1337","udp%3A%2F%2Ftracker.coppersurfer.tk%3A6969","udp%3A%2F%2Fexodus.desync.com%3A6969"],"infoHash":"df6ff3b34ea98a73b3a40ac463324322f591b110","infoHashBuffer":{"type":"Buffer","data":[223,111,243,179,78,169,138,115,179,164,10,196,99,50,67,34,245,145,177,16]},"announce":[],"urlList":[]}}